<?xml version="1.0" encoding="UTF-8"?>
<svg xmlns="http://www.w3.org/2000/svg" viewBox="0,0 512,351">
<circle id="s001" cx="205.604" cy="293.960" r="3"/>
<circle id="s002" cx="203.874" cy="286.255" r="3"/>
<circle id="s003" cx="205.600" cy="262.764" r="3"/>
<circle id="s004" cx="208.471" cy="255.412" r="3"/>
<circle id="s005" cx="212.392" cy="248.577" r="3"/>
<circle id="s006" cx="217.298" cy="242.408" r="3"/>
<circle id="s007" cx="223.072" cy="237.041" r="3"/>
<circle id="s008" cx="229.584" cy="232.617" r="3"/>
<circle id="s009" cx="236.678" cy="229.199" r="3"/>
<circle id="s010" cx="244.240" cy="226.885" r="3"/>
<circle id="s011" cx="252.070" cy="225.722" r="3"/>
<circle id="s012" cx="259.983" cy="225.728" r="3"/>
<circle id="s013" cx="267.830" cy="226.881" r="3"/>
<circle id="s014" cx="275.378" cy="229.188" r="3"/>
<circle id="s015" cx="282.516" cy="232.606" r="3"/>
<circle id="s016" cx="289.032" cy="237.052" r="3"/>
<circle id="s017" cx="294.821" cy="242.408" r="3"/>
<circle id="s018" cx="299.758" cy="248.569" r="3"/>
<circle id="s019" cx="303.705" cy="255.402" r="3"/>
<circle id="s020" cx="306.578" cy="262.764" r="3"/>
<circle id="s021" cx="308.151" cy="286.255" r="3"/>
<circle id="s022" cx="306.393" cy="293.960" r="3"/>
<circle id="s023" cx="189.041" cy="297.687" r="3"/>
<circle id="s024" cx="187.309" cy="290.051" r="3"/>
<circle id="s025" cx="187.310" cy="266.668" r="3"/>
<circle id="s026" cx="189.030" cy="259.038" r="3"/>
<circle id="s027" cx="191.634" cy="251.653" r="3"/>
<circle id="s028" cx="204.030" cy="231.892" r="3"/>
<circle id="s029" cx="209.576" cy="226.368" r="3"/>
<circle id="s030" cx="215.680" cy="221.491" r="3"/>
<circle id="s031" cx="222.297" cy="217.351" r="3"/>
<circle id="s032" cx="244.381" cy="209.656" r="3"/>
<circle id="s033" cx="252.152" cy="208.790" r="3"/>
<circle id="s034" cx="259.983" cy="208.789" r="3"/>
<circle id="s035" cx="267.776" cy="209.663" r="3"/>
<circle id="s036" cx="289.659" cy="217.351" r="3"/>
<circle id="s037" cx="296.267" cy="221.491" r="3"/>
<circle id="s038" cx="302.381" cy="226.368" r="3"/>
<circle id="s039" cx="307.892" cy="231.892" r="3"/>
<circle id="s040" cx="320.311" cy="251.653" r="3"/>
<circle id="s041" cx="322.895" cy="259.038" r="3"/>
<circle id="s042" cx="324.603" cy="266.668" r="3"/>
<circle id="s043" cx="324.602" cy="290.051" r="3"/>
<circle id="s044" cx="322.890" cy="297.687" r="3"/>
<circle id="s045" cx="176.569" cy="308.598" r="3"/>
<circle id="s046" cx="173.606" cy="301.300" r="3"/>
<circle id="s047" cx="171.314" cy="293.763" r="3"/>
<circle id="s048" cx="169.574" cy="270.748" r="3"/>
<circle id="s049" cx="170.684" cy="262.937" r="3"/>
<circle id="s050" cx="172.496" cy="255.265" r="3"/>
<circle id="s051" cx="174.994" cy="247.782" r="3"/>
<circle id="s052" cx="178.173" cy="240.579" r="3"/>
<circle id="s053" cx="192.541" cy="221.299" r="3"/>
<circle id="s054" cx="197.891" cy="215.527" r="3"/>
<circle id="s055" cx="203.734" cy="210.252" r="3"/>
<circle id="s056" cx="210.031" cy="205.529" r="3"/>
<circle id="s057" cx="216.741" cy="201.403" r="3"/>
<circle id="s058" cx="240.371" cy="193.202" r="3"/>
<circle id="s059" cx="248.195" cy="192.145" r="3"/>
<circle id="s060" cx="256.074" cy="191.794" r="3"/>
<circle id="s061" cx="263.954" cy="192.154" r="3"/>
<circle id="s062" cx="271.780" cy="193.228" r="3"/>
<circle id="s063" cx="295.179" cy="201.403" r="3"/>
<circle id="s064" cx="301.894" cy="205.529" r="3"/>
<circle id="s065" cx="308.212" cy="210.252" r="3"/>
<circle id="s066" cx="314.075" cy="215.527" r="3"/>
<circle id="s067" cx="319.436" cy="221.299" r="3"/>
<circle id="s068" cx="333.813" cy="240.579" r="3"/>
<circle id="s069" cx="336.984" cy="247.782" r="3"/>
<circle id="s070" cx="339.495" cy="255.265" r="3"/>
<circle id="s071" cx="341.312" cy="262.937" r="3"/>
<circle id="s072" cx="342.408" cy="270.748" r="3"/>
<circle id="s073" cx="340.676" cy="293.763" r="3"/>
<circle id="s074" cx="338.371" cy="301.300" r="3"/>
<circle id="s075" cx="335.404" cy="308.598" r="3"/>
<circle id="s076" cx="164.200" cy="318.734" r="3"/>
<circle id="s077" cx="160.693" cy="311.678" r="3"/>
<circle id="s078" cx="157.763" cy="304.375" r="3"/>
<circle id="s079" cx="155.390" cy="296.858" r="3"/>
<circle id="s080" cx="152.332" cy="274.602" r="3"/>
<circle id="s081" cx="152.902" cy="266.736" r="3"/>
<circle id="s082" cx="154.098" cy="258.945" r="3"/>
<circle id="s083" cx="155.860" cy="251.262" r="3"/>
<circle id="s084" cx="158.205" cy="243.745" r="3"/>
<circle id="s085" cx="161.121" cy="236.425" r="3"/>
<circle id="s086" cx="164.591" cy="229.354" r="3"/>
<circle id="s087" cx="177.158" cy="213.785" r="3"/>
<circle id="s088" cx="182.191" cy="207.727" r="3"/>
<circle id="s089" cx="187.616" cy="202.042" r="3"/>
<circle id="s090" cx="193.522" cy="196.815" r="3"/>
<circle id="s091" cx="199.780" cy="192.041" r="3"/>
<circle id="s092" cx="206.386" cy="187.749" r="3"/>
<circle id="s093" cx="213.322" cy="183.997" r="3"/>
<circle id="s094" cx="232.609" cy="178.215" r="3"/>
<circle id="s095" cx="240.345" cy="176.724" r="3"/>
<circle id="s096" cx="248.184" cy="175.840" r="3"/>
<circle id="s097" cx="256.064" cy="175.544" r="3"/>
<circle id="s098" cx="263.953" cy="175.858" r="3"/>
<circle id="s099" cx="271.792" cy="176.738" r="3"/>
<circle id="s100" cx="279.527" cy="178.231" r="3"/>
<circle id="s101" cx="298.603" cy="183.997" r="3"/>
<circle id="s102" cx="305.539" cy="187.749" r="3"/>
<circle id="s103" cx="312.143" cy="192.041" r="3"/>
<circle id="s104" cx="318.419" cy="196.815" r="3"/>
<circle id="s105" cx="324.302" cy="202.042" r="3"/>
<circle id="s106" cx="329.763" cy="207.727" r="3"/>
<circle id="s107" cx="334.805" cy="213.785" r="3"/>
<circle id="s108" cx="347.377" cy="229.354" r="3"/>
<circle id="s109" cx="350.849" cy="236.425" r="3"/>
<circle id="s110" cx="353.777" cy="243.745" r="3"/>
<circle id="s111" cx="356.126" cy="251.262" r="3"/>
<circle id="s112" cx="357.890" cy="258.945" r="3"/>
<circle id="s113" cx="359.090" cy="266.736" r="3"/>
<circle id="s114" cx="359.662" cy="274.602" r="3"/>
<circle id="s115" cx="356.587" cy="296.858" r="3"/>
<circle id="s116" cx="354.221" cy="304.375" r="3"/>
<circle id="s117" cx="351.264" cy="311.678" r="3"/>
<circle id="s118" cx="347.767" cy="318.734" r="3"/>
<circle id="s119" cx="145.512" cy="322.481" r="3"/>
<circle id="s120" cx="142.461" cy="315.268" r="3"/>
<circle id="s121" cx="139.878" cy="307.872" r="3"/>
<circle id="s122" cx="137.786" cy="300.326" r="3"/>
<circle id="s123" cx="135.969" cy="274.524" r="3"/>
<circle id="s124" cx="136.375" cy="266.698" r="3"/>
<circle id="s125" cx="137.284" cy="258.921" r="3"/>
<circle id="s126" cx="138.740" cy="251.213" r="3"/>
<circle id="s127" cx="140.678" cy="243.620" r="3"/>
<circle id="s128" cx="143.080" cy="236.173" r="3"/>
<circle id="s129" cx="146.006" cy="228.895" r="3"/>
<circle id="s130" cx="149.409" cy="221.837" r="3"/>
<circle id="s131" cx="164.722" cy="203.058" r="3"/>
<circle id="s132" cx="169.691" cy="197.006" r="3"/>
<circle id="s133" cx="175.079" cy="191.314" r="3"/>
<circle id="s134" cx="180.815" cy="185.980" r="3"/>
<circle id="s135" cx="186.866" cy="181.012" r="3"/>
<circle id="s136" cx="193.260" cy="176.480" r="3"/>
<circle id="s137" cx="199.920" cy="172.354" r="3"/>
<circle id="s138" cx="206.838" cy="168.675" r="3"/>
<circle id="s139" cx="228.850" cy="161.790" r="3"/>
<circle id="s140" cx="236.549" cy="160.268" r="3"/>
<circle id="s141" cx="244.317" cy="159.244" r="3"/>
<circle id="s142" cx="252.137" cy="158.762" r="3"/>
<circle id="s143" cx="259.982" cy="158.755" r="3"/>
<circle id="s144" cx="267.808" cy="159.251" r="3"/>
<circle id="s145" cx="275.590" cy="160.259" r="3"/>
<circle id="s146" cx="283.269" cy="161.790" r="3"/>
<circle id="s147" cx="305.113" cy="168.675" r="3"/>
<circle id="s148" cx="312.018" cy="172.354" r="3"/>
<circle id="s149" cx="318.693" cy="176.480" r="3"/>
<circle id="s150" cx="325.071" cy="181.012" r="3"/>
<circle id="s151" cx="331.127" cy="185.980" r="3"/>
<circle id="s152" cx="336.874" cy="191.314" r="3"/>
<circle id="s153" cx="342.238" cy="197.006" r="3"/>
<circle id="s154" cx="347.221" cy="203.058" r="3"/>
<circle id="s155" cx="362.544" cy="221.837" r="3"/>
<circle id="s156" cx="365.937" cy="228.895" r="3"/>
<circle id="s157" cx="368.843" cy="236.173" r="3"/>
<circle id="s158" cx="371.291" cy="243.620" r="3"/>
<circle id="s159" cx="373.207" cy="251.213" r="3"/>
<circle id="s160" cx="374.644" cy="258.921" r="3"/>
<circle id="s161" cx="375.577" cy="266.698" r="3"/>
<circle id="s162" cx="375.975" cy="274.524" r="3"/>
<circle id="s163" cx="374.144" cy="300.326" r="3"/>
<circle id="s164" cx="372.057" cy="307.872" r="3"/>
<circle id="s165" cx="369.493" cy="315.268" r="3"/>
<circle id="s166" cx="366.412" cy="322.481" r="3"/>
<circle id="s167" cx="131.311" cy="333.451" r="3"/>
<circle id="s168" cx="128.053" cy="326.272" r="3"/>
<circle id="s169" cx="125.253" cy="318.918" r="3"/>
<circle id="s170" cx="122.883" cy="311.420" r="3"/>
<circle id="s171" cx="120.944" cy="303.804" r="3"/>
<circle id="s172" cx="119.076" cy="278.773" r="3"/>
<circle id="s173" cx="119.169" cy="270.898" r="3"/>
<circle id="s174" cx="119.713" cy="263.045" r="3"/>
<circle id="s175" cx="120.715" cy="255.233" r="3"/>
<circle id="s176" cx="122.174" cy="247.498" r="3"/>
<circle id="s177" cx="124.090" cy="239.855" r="3"/>
<circle id="s178" cx="126.433" cy="232.339" r="3"/>
<circle id="s179" cx="129.204" cy="224.976" r="3"/>
<circle id="s180" cx="132.378" cy="217.787" r="3"/>
<circle id="s181" cx="135.978" cy="210.795" r="3"/>
<circle id="s182" cx="151.319" cy="191.937" r="3"/>
<circle id="s183" cx="156.420" cy="185.943" r="3"/>
<circle id="s184" cx="161.835" cy="180.246" r="3"/>
<circle id="s185" cx="167.572" cy="174.872" r="3"/>
<circle id="s186" cx="173.639" cy="169.831" r="3"/>
<circle id="s187" cx="179.986" cy="165.163" r="3"/>
<circle id="s188" cx="186.561" cy="160.859" r="3"/>
<circle id="s189" cx="193.376" cy="156.935" r="3"/>
<circle id="s190" cx="200.405" cy="153.414" r="3"/>
<circle id="s191" cx="224.910" cy="145.400" r="3"/>
<circle id="s192" cx="232.618" cy="143.833" r="3"/>
<circle id="s193" cx="240.406" cy="142.718" r="3"/>
<circle id="s194" cx="248.255" cy="142.067" r="3"/>
<circle id="s195" cx="256.135" cy="141.860" r="3"/>
<circle id="s196" cx="263.999" cy="142.093" r="3"/>
<circle id="s197" cx="271.845" cy="142.756" r="3"/>
<circle id="s198" cx="279.642" cy="143.877" r="3"/>
<circle id="s199" cx="287.365" cy="145.447" r="3"/>
<circle id="s200" cx="311.497" cy="153.414" r="3"/>
<circle id="s201" cx="318.540" cy="156.935" r="3"/>
<circle id="s202" cx="325.373" cy="160.859" r="3"/>
<circle id="s203" cx="331.979" cy="165.163" r="3"/>
<circle id="s204" cx="338.314" cy="169.831" r="3"/>
<circle id="s205" cx="344.345" cy="174.872" r="3"/>
<circle id="s206" cx="350.086" cy="180.246" r="3"/>
<circle id="s207" cx="355.531" cy="185.943" r="3"/>
<circle id="s208" cx="360.650" cy="191.937" r="3"/>
<circle id="s209" cx="375.969" cy="210.795" r="3"/>
<circle id="s210" cx="379.584" cy="217.787" r="3"/>
<circle id="s211" cx="382.791" cy="224.976" r="3"/>
<circle id="s212" cx="385.545" cy="232.339" r="3"/>
<circle id="s213" cx="387.881" cy="239.855" r="3"/>
<circle id="s214" cx="389.780" cy="247.498" r="3"/>
<circle id="s215" cx="391.243" cy="255.233" r="3"/>
<circle id="s216" cx="392.265" cy="263.045" r="3"/>
<circle id="s217" cx="392.814" cy="270.898" r="3"/>
<circle id="s218" cx="392.904" cy="278.773" r="3"/>
<circle id="s219" cx="391.054" cy="303.804" r="3"/>
<circle id="s220" cx="389.118" cy="311.420" r="3"/>
<circle id="s221" cx="386.713" cy="318.918" r="3"/>
<circle id="s222" cx="383.880" cy="326.272" r="3"/>
<circle id="s223" cx="380.635" cy="333.451" r="3"/>
<circle id="s224" cx="116.764" cy="344.002" r="3"/>
<circle id="s225" cx="113.373" cy="336.922" r="3"/>
<circle id="s226" cx="110.340" cy="329.668" r="3"/>
<circle id="s227" cx="107.683" cy="322.269" r="3"/>
<circle id="s228" cx="105.412" cy="314.748" r="3"/>
<circle id="s229" cx="103.538" cy="307.116" r="3"/>
<circle id="s230" cx="102.079" cy="282.237" r="3"/>
<circle id="s231" cx="101.843" cy="274.378" r="3"/>
<circle id="s232" cx="102.019" cy="266.519" r="3"/>
<circle id="s233" cx="102.578" cy="258.673" r="3"/>
<circle id="s234" cx="103.545" cy="250.873" r="3"/>
<circle id="s235" cx="104.910" cy="243.134" r="3"/>
<circle id="s236" cx="106.653" cy="235.469" r="3"/>
<circle id="s237" cx="108.810" cy="227.908" r="3"/>
<circle id="s238" cx="111.364" cy="220.465" r="3"/>
<circle id="s239" cx="114.260" cy="213.157" r="3"/>
<circle id="s240" cx="117.545" cy="206.012" r="3"/>
<circle id="s241" cx="121.196" cy="199.052" r="3"/>
<circle id="s242" cx="135.390" cy="183.011" r="3"/>
<circle id="s243" cx="140.439" cy="176.981" r="3"/>
<circle id="s244" cx="145.787" cy="171.218" r="3"/>
<circle id="s245" cx="151.413" cy="165.739" r="3"/>
<circle id="s246" cx="157.312" cy="160.548" r="3"/>
<circle id="s247" cx="163.454" cy="155.661" r="3"/>
<circle id="s248" cx="169.858" cy="151.095" r="3"/>
<circle id="s249" cx="176.468" cy="146.853" r="3"/>
<circle id="s250" cx="183.287" cy="142.958" r="3"/>
<circle id="s251" cx="190.311" cy="139.416" r="3"/>
<circle id="s252" cx="197.498" cy="136.242" r="3"/>
<circle id="s253" cx="217.156" cy="129.467" r="3"/>
<circle id="s254" cx="224.814" cy="127.682" r="3"/>
<circle id="s255" cx="232.570" cy="126.305" r="3"/>
<circle id="s256" cx="240.366" cy="125.314" r="3"/>
<circle id="s257" cx="248.209" cy="124.715" r="3"/>
<circle id="s258" cx="256.076" cy="124.529" r="3"/>
<circle id="s259" cx="263.940" cy="124.733" r="3"/>
<circle id="s260" cx="271.783" cy="125.326" r="3"/>
<circle id="s261" cx="279.598" cy="126.313" r="3"/>
<circle id="s262" cx="287.342" cy="127.710" r="3"/>
<circle id="s263" cx="294.996" cy="129.490" r="3"/>
<circle id="s264" cx="314.397" cy="136.242" r="3"/>
<circle id="s265" cx="321.584" cy="139.416" r="3"/>
<circle id="s266" cx="328.614" cy="142.958" r="3"/>
<circle id="s267" cx="335.448" cy="146.853" r="3"/>
<circle id="s268" cx="342.075" cy="151.095" r="3"/>
<circle id="s269" cx="348.478" cy="155.661" r="3"/>
<circle id="s270" cx="354.642" cy="160.548" r="3"/>
<circle id="s271" cx="360.549" cy="165.739" r="3"/>
<circle id="s272" cx="366.186" cy="171.218" r="3"/>
<circle id="s273" cx="371.538" cy="176.981" r="3"/>
<circle id="s274" cx="376.596" cy="183.011" r="3"/>
<circle id="s275" cx="390.761" cy="199.052" r="3"/>
<circle id="s276" cx="394.398" cy="206.012" r="3"/>
<circle id="s277" cx="397.682" cy="213.157" r="3"/>
<circle id="s278" cx="400.593" cy="220.465" r="3"/>
<circle id="s279" cx="403.123" cy="227.908" r="3"/>
<circle id="s280" cx="405.279" cy="235.469" r="3"/>
<circle id="s281" cx="407.035" cy="243.134" r="3"/>
<circle id="s282" cx="408.400" cy="250.873" r="3"/>
<circle id="s283" cx="409.364" cy="258.673" r="3"/>
<circle id="s284" cx="409.933" cy="266.519" r="3"/>
<circle id="s285" cx="410.118" cy="274.378" r="3"/>
<circle id="s286" cx="409.904" cy="282.237" r="3"/>
<circle id="s287" cx="408.450" cy="307.116" r="3"/>
<circle id="s288" cx="406.580" cy="314.748" r="3"/>
<circle id="s289" cx="404.303" cy="322.269" r="3"/>
<circle id="s290" cx="401.636" cy="329.668" r="3"/>
<circle id="s291" cx="398.591" cy="336.922" r="3"/>
<circle id="s292" cx="395.182" cy="344.002" r="3"/>
<circle id="s293" cx="098.714" cy="347.300" r="3"/>
<circle id="s294" cx="095.654" cy="340.089" r="3"/>
<circle id="s295" cx="092.924" cy="332.733" r="3"/>
<circle id="s296" cx="090.536" cy="325.254" r="3"/>
<circle id="s297" cx="088.491" cy="317.678" r="3"/>
<circle id="s298" cx="086.804" cy="310.026" r="3"/>
<circle id="s299" cx="085.929" cy="285.550" r="3"/>
<circle id="s300" cx="085.463" cy="277.725" r="3"/>
<circle id="s301" cx="085.349" cy="269.886" r="3"/>
<circle id="s302" cx="085.586" cy="262.046" r="3"/>
<circle id="s303" cx="086.169" cy="254.224" r="3"/>
<circle id="s304" cx="087.090" cy="246.439" r="3"/>
<circle id="s305" cx="088.384" cy="238.705" r="3"/>
<circle id="s306" cx="090.011" cy="231.044" r="3"/>
<circle id="s307" cx="092.009" cy="223.465" r="3"/>
<circle id="s308" cx="094.381" cy="215.991" r="3"/>
<circle id="s309" cx="097.073" cy="208.624" r="3"/>
<circle id="s310" cx="100.115" cy="201.394" r="3"/>
<circle id="s311" cx="103.491" cy="194.315" r="3"/>
<circle id="s312" cx="107.170" cy="187.391" r="3"/>
<circle id="s313" cx="122.708" cy="171.333" r="3"/>
<circle id="s314" cx="127.760" cy="165.334" r="3"/>
<circle id="s315" cx="133.071" cy="159.571" r="3"/>
<circle id="s316" cx="138.645" cy="154.065" r="3"/>
<circle id="s317" cx="144.466" cy="148.812" r="3"/>
<circle id="s318" cx="150.507" cy="143.838" r="3"/>
<circle id="s319" cx="156.779" cy="139.138" r="3"/>
<circle id="s320" cx="163.255" cy="134.737" r="3"/>
<circle id="s321" cx="169.937" cy="130.625" r="3"/>
<circle id="s322" cx="176.812" cy="126.833" r="3"/>
<circle id="s323" cx="183.834" cy="123.358" r="3"/>
<circle id="s324" cx="191.016" cy="120.202" r="3"/>
<circle id="s325" cx="213.363" cy="112.792" r="3"/>
<circle id="s326" cx="221.009" cy="111.019" r="3"/>
<circle id="s327" cx="228.717" cy="109.592" r="3"/>
<circle id="s328" cx="236.498" cy="108.543" r="3"/>
<circle id="s329" cx="244.298" cy="107.844" r="3"/>
<circle id="s330" cx="252.135" cy="107.495" r="3"/>
<circle id="s331" cx="259.982" cy="107.503" r="3"/>
<circle id="s332" cx="267.820" cy="107.855" r="3"/>
<circle id="s333" cx="275.645" cy="108.537" r="3"/>
<circle id="s334" cx="283.410" cy="109.599" r="3"/>
<circle id="s335" cx="291.135" cy="111.010" r="3"/>
<circle id="s336" cx="298.767" cy="112.788" r="3"/>
<circle id="s337" cx="320.886" cy="120.202" r="3"/>
<circle id="s338" cx="328.067" cy="123.358" r="3"/>
<circle id="s339" cx="335.102" cy="126.833" r="3"/>
<circle id="s340" cx="341.973" cy="130.625" r="3"/>
<circle id="s341" cx="348.662" cy="134.737" r="3"/>
<circle id="s342" cx="355.148" cy="139.138" r="3"/>
<circle id="s343" cx="361.437" cy="143.838" r="3"/>
<circle id="s344" cx="367.505" cy="148.812" r="3"/>
<circle id="s345" cx="373.334" cy="154.065" r="3"/>
<circle id="s346" cx="378.920" cy="159.571" r="3"/>
<circle id="s347" cx="384.240" cy="165.334" r="3"/>
<circle id="s348" cx="389.280" cy="171.333" r="3"/>
<circle id="s349" cx="404.799" cy="187.391" r="3"/>
<circle id="s350" cx="408.475" cy="194.315" r="3"/>
<circle id="s351" cx="411.830" cy="201.394" r="3"/>
<circle id="s352" cx="414.855" cy="208.624" r="3"/>
<circle id="s353" cx="417.551" cy="215.991" r="3"/>
<circle id="s354" cx="419.903" cy="223.465" r="3"/>
<circle id="s355" cx="421.897" cy="231.044" r="3"/>
<circle id="s356" cx="423.546" cy="238.705" r="3"/>
<circle id="s357" cx="424.841" cy="246.439" r="3"/>
<circle id="s358" cx="425.776" cy="254.224" r="3"/>
<circle id="s359" cx="426.361" cy="262.046" r="3"/>
<circle id="s360" cx="426.597" cy="269.886" r="3"/>
<circle id="s361" cx="426.468" cy="277.725" r="3"/>
<circle id="s362" cx="426.000" cy="285.550" r="3"/>
<circle id="s363" cx="425.171" cy="310.026" r="3"/>
<circle id="s364" cx="423.479" cy="317.678" r="3"/>
<circle id="s365" cx="421.426" cy="325.254" r="3"/>
<circle id="s366" cx="419.040" cy="332.733" r="3"/>
<circle id="s367" cx="416.308" cy="340.089" r="3"/>
<circle id="s368" cx="413.243" cy="347.300" r="3"/>
<circle id="s369" cx="076.132" cy="336.527" r="3"/>
<circle id="s370" cx="073.823" cy="329.054" r="3"/>
<circle id="s371" cx="071.809" cy="321.486" r="3"/>
<circle id="s372" cx="070.106" cy="313.837" r="3"/>
<circle id="s373" cx="068.442" cy="286.215" r="3"/>
<circle id="s374" cx="068.046" cy="278.398" r="3"/>
<circle id="s375" cx="067.940" cy="270.570" r="3"/>
<circle id="s376" cx="068.154" cy="262.754" r="3"/>
<circle id="s377" cx="068.745" cy="254.942" r="3"/>
<circle id="s378" cx="069.659" cy="247.167" r="3"/>
<circle id="s379" cx="070.855" cy="239.432" r="3"/>
<circle id="s380" cx="072.368" cy="231.761" r="3"/>
<circle id="s381" cx="074.187" cy="224.158" r="3"/>
<circle id="s382" cx="076.373" cy="216.644" r="3"/>
<circle id="s383" cx="078.872" cy="209.218" r="3"/>
<circle id="s384" cx="081.668" cy="201.898" r="3"/>
<circle id="s385" cx="084.757" cy="194.706" r="3"/>
<circle id="s386" cx="088.125" cy="187.655" r="3"/>
<circle id="s387" cx="091.787" cy="180.755" r="3"/>
<circle id="s388" cx="106.914" cy="163.256" r="3"/>
<circle id="s389" cx="111.810" cy="157.139" r="3"/>
<circle id="s390" cx="116.937" cy="151.220" r="3"/>
<circle id="s391" cx="122.290" cy="145.540" r="3"/>
<circle id="s392" cx="127.867" cy="140.074" r="3"/>
<circle id="s393" cx="133.708" cy="134.851" r="3"/>
<circle id="s394" cx="139.774" cy="129.882" r="3"/>
<circle id="s395" cx="146.028" cy="125.153" r="3"/>
<circle id="s396" cx="152.474" cy="120.684" r="3"/>
<circle id="s397" cx="159.065" cy="116.506" r="3"/>
<circle id="s398" cx="165.830" cy="112.594" r="3"/>
<circle id="s399" cx="172.736" cy="108.964" r="3"/>
<circle id="s400" cx="179.829" cy="105.620" r="3"/>
<circle id="s401" cx="187.061" cy="102.584" r="3"/>
<circle id="s402" cx="205.781" cy="097.138" r="3"/>
<circle id="s403" cx="213.366" cy="095.219" r="3"/>
<circle id="s404" cx="221.023" cy="093.602" r="3"/>
<circle id="s405" cx="228.749" cy="092.302" r="3"/>
<circle id="s406" cx="236.519" cy="091.322" r="3"/>
<circle id="s407" cx="244.331" cy="090.701" r="3"/>
<circle id="s408" cx="252.158" cy="090.404" r="3"/>
<circle id="s409" cx="259.989" cy="090.404" r="3"/>
<circle id="s410" cx="267.813" cy="090.701" r="3"/>
<circle id="s411" cx="275.614" cy="091.319" r="3"/>
<circle id="s412" cx="283.369" cy="092.294" r="3"/>
<circle id="s413" cx="291.099" cy="093.603" r="3"/>
<circle id="s414" cx="298.769" cy="095.220" r="3"/>
<circle id="s415" cx="306.362" cy="097.138" r="3"/>
<circle id="s416" cx="324.873" cy="102.584" r="3"/>
<circle id="s417" cx="332.078" cy="105.620" r="3"/>
<circle id="s418" cx="339.171" cy="108.964" r="3"/>
<circle id="s419" cx="346.131" cy="112.594" r="3"/>
<circle id="s420" cx="352.921" cy="116.506" r="3"/>
<circle id="s421" cx="359.532" cy="120.684" r="3"/>
<circle id="s422" cx="365.943" cy="125.153" r="3"/>
<circle id="s423" cx="372.165" cy="129.882" r="3"/>
<circle id="s424" cx="378.178" cy="134.851" r="3"/>
<circle id="s425" cx="384.017" cy="140.074" r="3"/>
<circle id="s426" cx="389.637" cy="145.540" r="3"/>
<circle id="s427" cx="395.036" cy="151.220" r="3"/>
<circle id="s428" cx="400.192" cy="157.139" r="3"/>
<circle id="s429" cx="405.053" cy="163.256" r="3"/>
<circle id="s430" cx="420.097" cy="180.755" r="3"/>
<circle id="s431" cx="423.778" cy="187.655" r="3"/>
<circle id="s432" cx="427.190" cy="194.706" r="3"/>
<circle id="s433" cx="430.301" cy="201.898" r="3"/>
<circle id="s434" cx="433.098" cy="209.218" r="3"/>
<circle id="s435" cx="435.560" cy="216.644" r="3"/>
<circle id="s436" cx="437.701" cy="224.158" r="3"/>
<circle id="s437" cx="439.544" cy="231.761" r="3"/>
<circle id="s438" cx="441.069" cy="239.432" r="3"/>
<circle id="s439" cx="442.296" cy="247.167" r="3"/>
<circle id="s440" cx="443.190" cy="254.942" r="3"/>
<circle id="s441" cx="443.775" cy="262.754" r="3"/>
<circle id="s442" cx="443.981" cy="270.570" r="3"/>
<circle id="s443" cx="443.880" cy="278.398" r="3"/>
<circle id="s444" cx="443.474" cy="286.215" r="3"/>
<circle id="s445" cx="441.856" cy="313.837" r="3"/>
<circle id="s446" cx="440.145" cy="321.486" r="3"/>
<circle id="s447" cx="438.123" cy="329.054" r="3"/>
<circle id="s448" cx="435.785" cy="336.527" r="3"/>
<circle id="s449" cx="056.157" cy="324.918" r="3"/>
<circle id="s450" cx="054.567" cy="317.235" r="3"/>
<circle id="s451" cx="051.582" cy="289.690" r="3"/>
<circle id="s452" cx="051.071" cy="281.853" r="3"/>
<circle id="s453" cx="050.821" cy="273.992" r="3"/>
<circle id="s454" cx="050.816" cy="266.136" r="3"/>
<circle id="s455" cx="051.159" cy="258.280" r="3"/>
<circle id="s456" cx="051.829" cy="250.445" r="3"/>
<circle id="s457" cx="052.755" cy="242.641" r="3"/>
<circle id="s458" cx="053.958" cy="234.884" r="3"/>
<circle id="s459" cx="055.502" cy="227.177" r="3"/>
<circle id="s460" cx="057.356" cy="219.529" r="3"/>
<circle id="s461" cx="059.468" cy="211.959" r="3"/>
<circle id="s462" cx="061.847" cy="204.480" r="3"/>
<circle id="s463" cx="064.552" cy="197.108" r="3"/>
<circle id="s464" cx="067.554" cy="189.829" r="3"/>
<circle id="s465" cx="070.830" cy="182.674" r="3"/>
<circle id="s466" cx="074.339" cy="175.656" r="3"/>
<circle id="s467" cx="078.104" cy="168.781" r="3"/>
<circle id="s468" cx="092.998" cy="152.391" r="3"/>
<circle id="s469" cx="097.848" cy="146.243" r="3"/>
<circle id="s470" cx="102.960" cy="140.290" r="3"/>
<circle id="s471" cx="108.345" cy="134.535" r="3"/>
<circle id="s472" cx="113.923" cy="128.973" r="3"/>
<circle id="s473" cx="119.696" cy="123.644" r="3"/>
<circle id="s474" cx="125.620" cy="118.531" r="3"/>
<circle id="s475" cx="131.772" cy="113.645" r="3"/>
<circle id="s476" cx="138.149" cy="109.009" r="3"/>
<circle id="s477" cx="144.682" cy="104.606" r="3"/>
<circle id="s478" cx="151.342" cy="100.477" r="3"/>
<circle id="s479" cx="158.153" cy="096.594" r="3"/>
<circle id="s480" cx="165.135" cy="092.959" r="3"/>
<circle id="s481" cx="172.276" cy="089.613" r="3"/>
<circle id="s482" cx="179.526" cy="086.547" r="3"/>
<circle id="s483" cx="201.848" cy="080.477" r="3"/>
<circle id="s484" cx="209.494" cy="078.567" r="3"/>
<circle id="s485" cx="217.164" cy="076.965" r="3"/>
<circle id="s486" cx="224.903" cy="075.636" r="3"/>
<circle id="s487" cx="232.694" cy="074.579" r="3"/>
<circle id="s488" cx="240.551" cy="073.831" r="3"/>
<circle id="s489" cx="248.393" cy="073.436" r="3"/>
<circle id="s490" cx="256.249" cy="073.287" r="3"/>
<circle id="s491" cx="264.114" cy="073.410" r="3"/>
<circle id="s492" cx="271.957" cy="073.863" r="3"/>
<circle id="s493" cx="279.790" cy="074.635" r="3"/>
<circle id="s494" cx="287.597" cy="075.692" r="3"/>
<circle id="s495" cx="295.330" cy="077.008" r="3"/>
<circle id="s496" cx="303.005" cy="078.643" r="3"/>
<circle id="s497" cx="310.632" cy="080.617" r="3"/>
<circle id="s498" cx="332.456" cy="086.547" r="3"/>
<circle id="s499" cx="339.672" cy="089.613" r="3"/>
<circle id="s500" cx="346.748" cy="092.959" r="3"/>
<circle id="s501" cx="353.747" cy="096.594" r="3"/>
<circle id="s502" cx="360.615" cy="100.477" r="3"/>
<circle id="s503" cx="367.304" cy="104.606" r="3"/>
<circle id="s504" cx="373.789" cy="109.009" r="3"/>
<circle id="s505" cx="380.105" cy="113.645" r="3"/>
<circle id="s506" cx="386.284" cy="118.531" r="3"/>
<circle id="s507" cx="392.293" cy="123.644" r="3"/>
<circle id="s508" cx="398.072" cy="128.973" r="3"/>
<circle id="s509" cx="403.599" cy="134.535" r="3"/>
<circle id="s510" cx="408.930" cy="140.290" r="3"/>
<circle id="s511" cx="414.059" cy="146.243" r="3"/>
<circle id="s512" cx="418.993" cy="152.391" r="3"/>
<circle id="s513" cx="433.794" cy="168.781" r="3"/>
<circle id="s514" cx="437.595" cy="175.656" r="3"/>
<circle id="s515" cx="441.158" cy="182.674" r="3"/>
<circle id="s516" cx="444.443" cy="189.829" r="3"/>
<circle id="s517" cx="447.388" cy="197.108" r="3"/>
<circle id="s518" cx="450.074" cy="204.480" r="3"/>
<circle id="s519" cx="452.488" cy="211.959" r="3"/>
<circle id="s520" cx="454.629" cy="219.529" r="3"/>
<circle id="s521" cx="456.479" cy="227.177" r="3"/>
<circle id="s522" cx="457.984" cy="234.884" r="3"/>
<circle id="s523" cx="459.197" cy="242.641" r="3"/>
<circle id="s524" cx="460.143" cy="250.445" r="3"/>
<circle id="s525" cx="460.807" cy="258.280" r="3"/>
<circle id="s526" cx="461.137" cy="266.136" r="3"/>
<circle id="s527" cx="461.139" cy="273.992" r="3"/>
<circle id="s528" cx="460.887" cy="281.853" r="3"/>
<circle id="s529" cx="460.359" cy="289.690" r="3"/>
<circle id="s530" cx="457.385" cy="317.235" r="3"/>
<circle id="s531" cx="455.767" cy="324.918" r="3"/>
<circle id="s532" cx="034.168" cy="293.237" r="3"/>
<circle id="s533" cx="033.608" cy="285.443" r="3"/>
<circle id="s534" cx="033.291" cy="277.624" r="3"/>
<circle id="s535" cx="033.236" cy="269.801" r="3"/>
<circle id="s536" cx="033.449" cy="261.978" r="3"/>
<circle id="s537" cx="033.933" cy="254.177" r="3"/>
<circle id="s538" cx="034.704" cy="246.391" r="3"/>
<circle id="s539" cx="035.785" cy="238.644" r="3"/>
<circle id="s540" cx="037.116" cy="230.930" r="3"/>
<circle id="s541" cx="038.719" cy="223.271" r="3"/>
<circle id="s542" cx="040.588" cy="215.672" r="3"/>
<circle id="s543" cx="042.721" cy="208.145" r="3"/>
<circle id="s544" cx="045.110" cy="200.700" r="3"/>
<circle id="s545" cx="047.773" cy="193.352" r="3"/>
<circle id="s546" cx="050.689" cy="186.102" r="3"/>
<circle id="s547" cx="053.885" cy="178.958" r="3"/>
<circle id="s548" cx="057.329" cy="171.924" r="3"/>
<circle id="s549" cx="061.013" cy="165.022" r="3"/>
<circle id="s550" cx="064.938" cy="158.251" r="3"/>
<circle id="s551" cx="080.436" cy="140.552" r="3"/>
<circle id="s552" cx="085.358" cy="134.493" r="3"/>
<circle id="s553" cx="090.508" cy="128.610" r="3"/>
<circle id="s554" cx="095.860" cy="122.910" r="3"/>
<circle id="s555" cx="101.421" cy="117.406" r="3"/>
<circle id="s556" cx="107.174" cy="112.098" r="3"/>
<circle id="s557" cx="113.114" cy="106.994" r="3"/>
<circle id="s558" cx="119.230" cy="102.106" r="3"/>
<circle id="s559" cx="125.505" cy="097.426" r="3"/>
<circle id="s560" cx="131.940" cy="092.966" r="3"/>
<circle id="s561" cx="138.532" cy="088.746" r="3"/>
<circle id="s562" cx="145.276" cy="084.758" r="3"/>
<circle id="s563" cx="152.120" cy="081.020" r="3"/>
<circle id="s564" cx="159.107" cy="077.520" r="3"/>
<circle id="s565" cx="166.214" cy="074.264" r="3"/>
<circle id="s566" cx="173.455" cy="071.267" r="3"/>
<circle id="s567" cx="198.153" cy="064.224" r="3"/>
<circle id="s568" cx="205.755" cy="062.325" r="3"/>
<circle id="s569" cx="213.412" cy="060.706" r="3"/>
<circle id="s570" cx="221.113" cy="059.359" r="3"/>
<circle id="s571" cx="228.858" cy="058.268" r="3"/>
<circle id="s572" cx="236.645" cy="057.457" r="3"/>
<circle id="s573" cx="244.453" cy="056.908" r="3"/>
<circle id="s574" cx="252.282" cy="056.630" r="3"/>
<circle id="s575" cx="260.113" cy="056.659" r="3"/>
<circle id="s576" cx="267.933" cy="056.954" r="3"/>
<circle id="s577" cx="275.739" cy="057.457" r="3"/>
<circle id="s578" cx="283.514" cy="058.282" r="3"/>
<circle id="s579" cx="291.268" cy="059.409" r="3"/>
<circle id="s580" cx="298.983" cy="060.758" r="3"/>
<circle id="s581" cx="306.619" cy="062.374" r="3"/>
<circle id="s582" cx="314.201" cy="064.316" r="3"/>
<circle id="s583" cx="338.480" cy="071.267" r="3"/>
<circle id="s584" cx="345.717" cy="074.264" r="3"/>
<circle id="s585" cx="352.843" cy="077.520" r="3"/>
<circle id="s586" cx="359.849" cy="081.020" r="3"/>
<circle id="s587" cx="366.725" cy="084.758" r="3"/>
<circle id="s588" cx="373.450" cy="088.746" r="3"/>
<circle id="s589" cx="380.037" cy="092.966" r="3"/>
<circle id="s590" cx="386.457" cy="097.426" r="3"/>
<circle id="s591" cx="392.725" cy="102.106" r="3"/>
<circle id="s592" cx="398.817" cy="106.994" r="3"/>
<circle id="s593" cx="404.742" cy="112.098" r="3"/>
<circle id="s594" cx="410.489" cy="117.406" r="3"/>
<circle id="s595" cx="416.042" cy="122.910" r="3"/>
<circle id="s596" cx="421.415" cy="128.610" r="3"/>
<circle id="s597" cx="426.581" cy="134.494" r="3"/>
<circle id="s598" cx="431.531" cy="140.552" r="3"/>
<circle id="s599" cx="447.030" cy="158.251" r="3"/>
<circle id="s600" cx="450.932" cy="165.022" r="3"/>
<circle id="s601" cx="454.604" cy="171.924" r="3"/>
<circle id="s602" cx="458.041" cy="178.958" r="3"/>
<circle id="s603" cx="461.206" cy="186.102" r="3"/>
<circle id="s604" cx="464.130" cy="193.352" r="3"/>
<circle id="s605" cx="466.800" cy="200.700" r="3"/>
<circle id="s606" cx="469.205" cy="208.145" r="3"/>
<circle id="s607" cx="471.357" cy="215.672" r="3"/>
<circle id="s608" cx="473.222" cy="223.271" r="3"/>
<circle id="s609" cx="474.838" cy="230.930" r="3"/>
<circle id="s610" cx="476.165" cy="238.644" r="3"/>
<circle id="s611" cx="477.219" cy="246.391" r="3"/>
<circle id="s612" cx="477.983" cy="254.177" r="3"/>
<circle id="s613" cx="478.472" cy="261.978" r="3"/>
<circle id="s614" cx="478.688" cy="269.801" r="3"/>
<circle id="s615" cx="478.649" cy="277.624" r="3"/>
<circle id="s616" cx="478.317" cy="285.443" r="3"/>
<circle id="s617" cx="477.772" cy="293.237" r="3"/>
<circle id="s618" cx="016.781" cy="267.078" r="3"/>
<circle id="s619" cx="016.988" cy="259.245" r="3"/>
<circle id="s620" cx="017.556" cy="251.432" r="3"/>
<circle id="s621" cx="018.280" cy="243.639" r="3"/>
<circle id="s622" cx="019.289" cy="235.880" r="3"/>
<circle id="s623" cx="020.582" cy="228.151" r="3"/>
<circle id="s624" cx="022.057" cy="220.469" r="3"/>
<circle id="s625" cx="023.855" cy="212.843" r="3"/>
<circle id="s626" cx="025.895" cy="205.273" r="3"/>
<circle id="s627" cx="028.107" cy="197.790" r="3"/>
<circle id="s628" cx="030.666" cy="190.376" r="3"/>
<circle id="s629" cx="033.435" cy="183.045" r="3"/>
<circle id="s630" cx="036.379" cy="175.814" r="3"/>
<circle id="s631" cx="039.665" cy="168.688" r="3"/>
<circle id="s632" cx="043.148" cy="161.660" r="3"/>
<circle id="s633" cx="046.772" cy="154.762" r="3"/>
<circle id="s634" cx="050.754" cy="147.992" r="3"/>
<circle id="s635" cx="064.720" cy="132.117" r="3"/>
<circle id="s636" cx="069.592" cy="125.972" r="3"/>
<circle id="s637" cx="074.584" cy="119.988" r="3"/>
<circle id="s638" cx="079.875" cy="114.193" r="3"/>
<circle id="s639" cx="085.339" cy="108.546" r="3"/>
<circle id="s640" cx="090.896" cy="103.093" r="3"/>
<circle id="s641" cx="096.710" cy="097.816" r="3"/>
<circle id="s642" cx="102.705" cy="092.739" r="3"/>
<circle id="s643" cx="108.774" cy="087.862" r="3"/>
<circle id="s644" cx="115.059" cy="083.169" r="3"/>
<circle id="s645" cx="121.536" cy="078.694" r="3"/>
<circle id="s646" cx="128.051" cy="074.450" r="3"/>
<circle id="s647" cx="134.755" cy="070.387" r="3"/>
<circle id="s648" cx="141.645" cy="066.559" r="3"/>
<circle id="s649" cx="148.555" cy="062.982" r="3"/>
<circle id="s650" cx="155.612" cy="059.579" r="3"/>
<circle id="s651" cx="162.844" cy="056.462" r="3"/>
<circle id="s652" cx="170.088" cy="053.595" r="3"/>
<circle id="s653" cx="190.319" cy="047.499" r="3"/>
<circle id="s654" cx="197.874" cy="045.439" r="3"/>
<circle id="s655" cx="205.534" cy="043.684" r="3"/>
<circle id="s656" cx="213.201" cy="042.194" r="3"/>
<circle id="s657" cx="220.929" cy="040.890" r="3"/>
<circle id="s658" cx="228.708" cy="039.898" r="3"/>
<circle id="s659" cx="236.489" cy="039.151" r="3"/>
<circle id="s660" cx="244.312" cy="038.592" r="3"/>
<circle id="s661" cx="252.145" cy="038.393" r="3"/>
<circle id="s662" cx="259.982" cy="038.393" r="3"/>
<circle id="s663" cx="267.806" cy="038.595" r="3"/>
<circle id="s664" cx="275.618" cy="039.158" r="3"/>
<circle id="s665" cx="283.433" cy="039.901" r="3"/>
<circle id="s666" cx="291.177" cy="040.881" r="3"/>
<circle id="s667" cx="298.920" cy="042.186" r="3"/>
<circle id="s668" cx="306.622" cy="043.682" r="3"/>
<circle id="s669" cx="314.220" cy="045.447" r="3"/>
<circle id="s670" cx="321.806" cy="047.499" r="3"/>
<circle id="s671" cx="341.852" cy="053.595" r="3"/>
<circle id="s672" cx="349.164" cy="056.462" r="3"/>
<circle id="s673" cx="356.283" cy="059.579" r="3"/>
<circle id="s674" cx="363.379" cy="062.982" r="3"/>
<circle id="s675" cx="370.380" cy="066.559" r="3"/>
<circle id="s676" cx="377.158" cy="070.387" r="3"/>
<circle id="s677" cx="383.868" cy="074.450" r="3"/>
<circle id="s678" cx="390.485" cy="078.694" r="3"/>
<circle id="s679" cx="396.862" cy="083.169" r="3"/>
<circle id="s680" cx="403.132" cy="087.862" r="3"/>
<circle id="s681" cx="409.311" cy="092.739" r="3"/>
<circle id="s682" cx="415.226" cy="097.816" r="3"/>
<circle id="s683" cx="420.999" cy="103.093" r="3"/>
<circle id="s684" cx="426.668" cy="108.546" r="3"/>
<circle id="s685" cx="432.074" cy="114.193" r="3"/>
<circle id="s686" cx="437.289" cy="119.988" r="3"/>
<circle id="s687" cx="442.395" cy="125.972" r="3"/>
<circle id="s688" cx="447.255" cy="132.117" r="3"/>
<circle id="s689" cx="461.229" cy="147.992" r="3"/>
<circle id="s690" cx="465.098" cy="154.762" r="3"/>
<circle id="s691" cx="468.803" cy="161.660" r="3"/>
<circle id="s692" cx="472.333" cy="168.688" r="3"/>
<circle id="s693" cx="475.498" cy="175.814" r="3"/>
<circle id="s694" cx="478.503" cy="183.045" r="3"/>
<circle id="s695" cx="481.315" cy="190.376" r="3"/>
<circle id="s696" cx="483.770" cy="197.790" r="3"/>
<circle id="s697" cx="486.044" cy="205.273" r="3"/>
<circle id="s698" cx="488.109" cy="212.843" r="3"/>
<circle id="s699" cx="489.843" cy="220.469" r="3"/>
<circle id="s700" cx="491.360" cy="228.151" r="3"/>
<circle id="s701" cx="492.673" cy="235.880" r="3"/>
<circle id="s702" cx="493.638" cy="243.639" r="3"/>
<circle id="s703" cx="494.386" cy="251.432" r="3"/>
<circle id="s704" cx="494.946" cy="259.245" r="3"/>
<circle id="s705" cx="495.149" cy="267.078" r="3"/>
<circle id="s706" cx="005.519" cy="225.972" r="3"/>
<circle id="s707" cx="007.022" cy="218.289" r="3"/>
<circle id="s708" cx="008.664" cy="210.654" r="3"/>
<circle id="s709" cx="010.667" cy="203.072" r="3"/>
<circle id="s710" cx="012.820" cy="195.557" r="3"/>
<circle id="s711" cx="015.195" cy="188.118" r="3"/>
<circle id="s712" cx="017.876" cy="180.748" r="3"/>
<circle id="s713" cx="020.677" cy="173.464" r="3"/>
<circle id="s714" cx="023.793" cy="166.274" r="3"/>
<circle id="s715" cx="027.093" cy="159.182" r="3"/>
<circle id="s716" cx="030.533" cy="152.186" r="3"/>
<circle id="s717" cx="034.341" cy="145.308" r="3"/>
<circle id="s718" cx="038.230" cy="138.551" r="3"/>
<circle id="s719" cx="051.951" cy="121.185" r="3"/>
<circle id="s720" cx="056.873" cy="115.064" r="3"/>
<circle id="s721" cx="061.938" cy="109.100" r="3"/>
<circle id="s722" cx="067.087" cy="103.274" r="3"/>
<circle id="s723" cx="072.584" cy="097.625" r="3"/>
<circle id="s724" cx="078.127" cy="092.143" r="3"/>
<circle id="s725" cx="083.831" cy="086.818" r="3"/>
<circle id="s726" cx="089.803" cy="081.673" r="3"/>
<circle id="s727" cx="095.789" cy="076.731" r="3"/>
<circle id="s728" cx="102.015" cy="071.945" r="3"/>
<circle id="s729" cx="108.375" cy="067.374" r="3"/>
<circle id="s730" cx="114.794" cy="062.980" r="3"/>
<circle id="s731" cx="121.463" cy="058.779" r="3"/>
<circle id="s732" cx="128.178" cy="054.824" r="3"/>
<circle id="s733" cx="134.988" cy="051.021" r="3"/>
<circle id="s734" cx="142.026" cy="047.450" r="3"/>
<circle id="s735" cx="149.050" cy="044.129" r="3"/>
<circle id="s736" cx="156.220" cy="040.961" r="3"/>
<circle id="s737" cx="163.518" cy="038.077" r="3"/>
<circle id="s738" cx="186.504" cy="030.712" r="3"/>
<circle id="s739" cx="194.041" cy="028.675" r="3"/>
<circle id="s740" cx="201.712" cy="026.921" r="3"/>
<circle id="s741" cx="209.359" cy="025.413" r="3"/>
<circle id="s742" cx="217.089" cy="024.056" r="3"/>
<circle id="s743" cx="224.842" cy="023.058" r="3"/>
<circle id="s744" cx="232.613" cy="022.212" r="3"/>
<circle id="s745" cx="240.428" cy="021.623" r="3"/>
<circle id="s746" cx="248.240" cy="021.301" r="3"/>
<circle id="s747" cx="256.063" cy="021.105" r="3"/>
<circle id="s748" cx="263.892" cy="021.301" r="3"/>
<circle id="s749" cx="271.719" cy="021.623" r="3"/>
<circle id="s750" cx="279.511" cy="022.214" r="3"/>
<circle id="s751" cx="287.298" cy="023.058" r="3"/>
<circle id="s752" cx="295.049" cy="024.056" r="3"/>
<circle id="s753" cx="302.761" cy="025.412" r="3"/>
<circle id="s754" cx="310.459" cy="026.919" r="3"/>
<circle id="s755" cx="318.041" cy="028.677" r="3"/>
<circle id="s756" cx="325.633" cy="030.711" r="3"/>
<circle id="s757" cx="348.491" cy="038.077" r="3"/>
<circle id="s758" cx="355.701" cy="040.961" r="3"/>
<circle id="s759" cx="362.886" cy="044.129" r="3"/>
<circle id="s760" cx="369.993" cy="047.450" r="3"/>
<circle id="s761" cx="376.893" cy="051.021" r="3"/>
<circle id="s762" cx="383.780" cy="054.824" r="3"/>
<circle id="s763" cx="390.534" cy="058.779" r="3"/>
<circle id="s764" cx="397.094" cy="062.980" r="3"/>
<circle id="s765" cx="403.615" cy="067.374" r="3"/>
<circle id="s766" cx="409.925" cy="071.945" r="3"/>
<circle id="s767" cx="416.116" cy="076.731" r="3"/>
<circle id="s768" cx="422.243" cy="081.673" r="3"/>
<circle id="s769" cx="428.061" cy="086.818" r="3"/>
<circle id="s770" cx="433.802" cy="092.143" r="3"/>
<circle id="s771" cx="439.431" cy="097.625" r="3"/>
<circle id="s772" cx="444.766" cy="103.274" r="3"/>
<circle id="s773" cx="450.037" cy="109.100" r="3"/>
<circle id="s774" cx="455.101" cy="115.064" r="3"/>
<circle id="s775" cx="459.914" cy="121.185" r="3"/>
<circle id="s776" cx="473.664" cy="138.551" r="3"/>
<circle id="s777" cx="477.665" cy="145.308" r="3"/>
<circle id="s778" cx="481.343" cy="152.186" r="3"/>
<circle id="s779" cx="484.846" cy="159.182" r="3"/>
<circle id="s780" cx="488.207" cy="166.274" r="3"/>
<circle id="s781" cx="491.197" cy="173.464" r="3"/>
<circle id="s782" cx="494.085" cy="180.748" r="3"/>
<circle id="s783" cx="496.736" cy="188.118" r="3"/>
<circle id="s784" cx="499.085" cy="195.557" r="3"/>
<circle id="s785" cx="501.305" cy="203.072" r="3"/>
<circle id="s786" cx="503.223" cy="210.654" r="3"/>
<circle id="s787" cx="504.904" cy="218.289" r="3"/>
<circle id="s788" cx="506.443" cy="225.972" r="3"/>
<circle id="s789" cx="003.700" cy="170.748" r="3"/>
<circle id="s790" cx="006.792" cy="163.592" r="3"/>
<circle id="s791" cx="010.192" cy="156.529" r="3"/>
<circle id="s792" cx="013.746" cy="149.568" r="3"/>
<circle id="s793" cx="017.464" cy="142.704" r="3"/>
<circle id="s794" cx="021.485" cy="135.951" r="3"/>
<circle id="s795" cx="025.556" cy="129.315" r="3"/>
<circle id="s796" cx="039.136" cy="110.162" r="3"/>
<circle id="s797" cx="044.054" cy="104.043" r="3"/>
<circle id="s798" cx="049.017" cy="098.063" r="3"/>
<circle id="s799" cx="054.332" cy="092.226" r="3"/>
<circle id="s800" cx="059.661" cy="086.555" r="3"/>
<circle id="s801" cx="065.205" cy="081.024" r="3"/>
<circle id="s802" cx="070.927" cy="075.663" r="3"/>
<circle id="s803" cx="076.690" cy="070.440" r="3"/>
<circle id="s804" cx="082.769" cy="065.406" r="3"/>
<circle id="s805" cx="088.842" cy="060.557" r="3"/>
<circle id="s806" cx="095.135" cy="055.858" r="3"/>
<circle id="s807" cx="101.537" cy="051.366" r="3"/>
<circle id="s808" cx="108.003" cy="047.022" r="3"/>
<circle id="s809" cx="114.724" cy="042.890" r="3"/>
<circle id="s810" cx="121.415" cy="038.962" r="3"/>
<circle id="s811" cx="128.329" cy="035.187" r="3"/>
<circle id="s812" cx="135.291" cy="031.668" r="3"/>
<circle id="s813" cx="142.327" cy="028.270" r="3"/>
<circle id="s814" cx="149.550" cy="025.156" r="3"/>
<circle id="s815" cx="156.744" cy="022.218" r="3"/>
<circle id="s816" cx="178.996" cy="014.630" r="3"/>
<circle id="s817" cx="186.556" cy="012.589" r="3"/>
<circle id="s818" cx="194.123" cy="010.701" r="3"/>
<circle id="s819" cx="201.812" cy="009.052" r="3"/>
<circle id="s820" cx="209.476" cy="007.636" r="3"/>
<circle id="s821" cx="217.238" cy="006.376" r="3"/>
<circle id="s822" cx="224.986" cy="005.449" r="3"/>
<circle id="s823" cx="232.775" cy="004.615" r="3"/>
<circle id="s824" cx="240.587" cy="004.137" r="3"/>
<circle id="s825" cx="248.408" cy="003.780" r="3"/>
<circle id="s826" cx="256.231" cy="003.700" r="3"/>
<circle id="s827" cx="264.062" cy="003.817" r="3"/>
<circle id="s828" cx="271.876" cy="004.133" r="3"/>
<circle id="s829" cx="279.691" cy="004.720" r="3"/>
<circle id="s830" cx="287.467" cy="005.429" r="3"/>
<circle id="s831" cx="295.239" cy="006.491" r="3"/>
<circle id="s832" cx="302.986" cy="007.659" r="3"/>
<circle id="s833" cx="310.654" cy="009.141" r="3"/>
<circle id="s834" cx="318.330" cy="010.777" r="3"/>
<circle id="s835" cx="325.888" cy="012.654" r="3"/>
<circle id="s836" cx="333.461" cy="014.775" r="3"/>
<circle id="s837" cx="355.154" cy="022.218" r="3"/>
<circle id="s838" cx="362.463" cy="025.156" r="3"/>
<circle id="s839" cx="369.562" cy="028.270" r="3"/>
<circle id="s840" cx="376.674" cy="031.668" r="3"/>
<circle id="s841" cx="383.648" cy="035.187" r="3"/>
<circle id="s842" cx="390.487" cy="038.962" r="3"/>
<circle id="s843" cx="397.308" cy="042.890" r="3"/>
<circle id="s844" cx="403.870" cy="047.022" r="3"/>
<circle id="s845" cx="410.437" cy="051.366" r="3"/>
<circle id="s846" cx="416.827" cy="055.858" r="3"/>
<circle id="s847" cx="423.071" cy="060.557" r="3"/>
<circle id="s848" cx="429.280" cy="065.406" r="3"/>
<circle id="s849" cx="435.161" cy="070.440" r="3"/>
<circle id="s850" cx="441.061" cy="075.663" r="3"/>
<circle id="s851" cx="446.740" cy="081.024" r="3"/>
<circle id="s852" cx="452.253" cy="086.555" r="3"/>
<circle id="s853" cx="457.722" cy="092.226" r="3"/>
<circle id="s854" cx="462.823" cy="098.063" r="3"/>
<circle id="s855" cx="467.928" cy="104.043" r="3"/>
<circle id="s856" cx="472.787" cy="110.162" r="3"/>
<circle id="s857" cx="486.298" cy="129.315" r="3"/>
<circle id="s858" cx="490.503" cy="135.951" r="3"/>
<circle id="s859" cx="494.429" cy="142.704" r="3"/>
<circle id="s860" cx="498.171" cy="149.568" r="3"/>
<circle id="s861" cx="501.809" cy="156.529" r="3"/>
<circle id="s862" cx="505.083" cy="163.592" r="3"/>
<circle id="s863" cx="508.300" cy="170.748" r="3"/>
</svg>
