<svg xmlns="http://www.w3.org/2000/svg" viewBox="0 -105 220 120">
  <defs>
    <linearGradient id="myGradient" x1="0%" y1="0%" x2="100%" y2="100%">
      <stop offset="0%" stop-color="cyan" />
      <stop offset="100%" stop-color="purple" />
    </linearGradient>
    <filter id="blur-filter" x="0" y="0" width="100%" height="100%">
      <feGaussianBlur in="SourceGraphic" stdDeviation="0.5" />
    </filter>
  </defs>

  <g
    id="arcs"
    stroke-linecap="round"
    fill="none"
    stroke="url(#myGradient)"
    filter="url(#blur-filter)"
  >
    <path
      d="M -19.648942747264822 4.934447963589011 A 9 7.2 0 0 1 19.64 4.93"
    ></path>
    <g>
      <path
        d="M -30.603406518972704 -93.87874610633578 A 94 94 0 0 1 30.603406518972736 -93.87874610633577"
      ></path>
      <path
        d="M -28.417448910474654 -87.53026424159752 A 87.28571428571429 87.28571428571429 0 0 1 28.417448910474686 -87.53026424159751"
      ></path>
      <path
        d="M -26.231491301976604 -81.18178237685925 A 80.57142857142857 80.57142857142857 0 0 1 26.23149130197663 -81.18178237685923"
      ></path>
      <path
        d="M -24.045533693478554 -74.83330051212097 A 73.85714285714286 73.85714285714286 0 0 1 24.04553369347858 -74.83330051212097"
      ></path>
      <path
        d="M -21.8595760849805 -68.4848186473827 A 67.14285714285714 67.14285714285714 0 0 1 21.859576084980525 -68.4848186473827"
      ></path>
      <path
        d="M -19.673618476482453 -62.136336782644435 A 60.42857142857143 60.42857142857143 0 0 1 19.673618476482474 -62.13633678264443"
      ></path>
      <path
        d="M -17.487660867984403 -55.78785491790617 A 53.714285714285715 53.714285714285715 0 0 1 17.48766086798442 -55.78785491790616"
      ></path>
      <path
        d="M -15.301703259486352 -49.43937305316789 A 47 47 0 0 1 15.301703259486368 -49.439373053167884"
      ></path>
      <path
        d="M -13.115745650988302 -43.09089118842962 A 40.285714285714285 40.285714285714285 0 0 1 13.115745650988314 -43.090891188429616"
      ></path>
      <path
        d="M -10.92978804249025 -36.74240932369135 A 33.57142857142857 33.57142857142857 0 0 1 10.929788042490262 -36.74240932369135"
      ></path>
      <path
        d="M -8.743830433992203 -30.393927458953083 A 26.85714285714286 26.85714285714286 0 0 1 8.743830433992212 -30.393927458953083"
      ></path>
      <path
        d="M -6.557872825494149 -24.045445594214808 A 20.14285714285714 20.14285714285714 0 0 1 6.557872825494156 -24.045445594214804"
      ></path>
      <path
        d="M -4.3719152169961015 -17.696963729476543 A 13.42857142857143 13.42857142857143 0 0 1 4.371915216996106 -17.696963729476543"
      ></path>
    </g>
    <g>
      <path
        d="M 38.04759747124506 -91.39931253174443 A 94 94 0 0 1 85.04759747124506 -57.251813715492474"
      ></path>
      <path
        d="M 35.97276908044184 -85.01364735090554 A 87.28571428571429 87.28571428571429 0 0 1 79.61562622329899 -53.3052555929573"
      ></path>
      <path
        d="M 33.897940689638624 -78.62798217006666 A 80.57142857142857 80.57142857142857 0 0 1 74.18365497535291 -49.35869747042212"
      ></path>
      <path
        d="M 31.823112298835404 -72.24231698922777 A 73.85714285714286 73.85714285714286 0 0 1 68.75168372740683 -45.41213934788695"
      ></path>
      <path
        d="M 29.748283908032185 -65.85665180838888 A 67.14285714285714 67.14285714285714 0 0 1 63.319712479460755 -41.46558122535176"
      ></path>
      <path
        d="M 27.67345551722897 -59.47098662754999 A 60.42857142857143 60.42857142857143 0 0 1 57.88774123151468 -37.51902310281659"
      ></path>
      <path
        d="M 25.59862712642575 -53.085321446711106 A 53.714285714285715 53.714285714285715 0 0 1 52.45576998356861 -33.57246498028141"
      ></path>
      <path
        d="M 23.52379873562253 -46.699656265872214 A 47 47 0 0 1 47.02379873562253 -29.625906857746237"
      ></path>
      <path
        d="M 21.448970344819312 -40.31399108503333 A 40.285714285714285 40.285714285714285 0 0 1 41.591827487676454 -25.67934873521106"
      ></path>
      <path
        d="M 19.374141954016093 -33.92832590419444 A 33.57142857142857 33.57142857142857 0 0 1 36.159856239730374 -21.73279061267588"
      ></path>
      <path
        d="M 17.299313563212877 -27.542660723355556 A 26.85714285714286 26.85714285714286 0 0 1 30.727884991784308 -17.786232490140712"
      ></path>
      <path
        d="M 15.224485172409654 -21.15699554251666 A 20.14285714285714 20.14285714285714 0 0 1 25.295913743838224 -13.839674367605529"
      ></path>
      <path
        d="M 13.149656781606438 -14.771330361677778 A 13.42857142857143 13.42857142857143 0 0 1 19.863942495892154 -9.893116245070356"
      ></path>
    </g>
    <g>
      <path
        d="M -85.04759747124506 -57.25181371549249 A 94 94 0 0 1 -38.047597471245055 -91.39931253174444"
      ></path>
      <path
        d="M -79.61562622329897 -53.30525559295731 A 87.28571428571429 87.28571428571429 0 0 1 -35.972769080441836 -85.01364735090556"
      ></path>
      <path
        d="M -74.1836549753529 -49.35869747042213 A 80.57142857142857 80.57142857142857 0 0 1 -33.89794068963862 -78.62798217006666"
      ></path>
      <path
        d="M -68.75168372740683 -45.412139347886956 A 73.85714285714286 73.85714285714286 0 0 1 -31.823112298835397 -72.24231698922777"
      ></path>
      <path
        d="M -63.31971247946075 -41.46558122535177 A 67.14285714285714 67.14285714285714 0 0 1 -29.748283908032178 -65.85665180838888"
      ></path>
      <path
        d="M -57.887741231514674 -37.5190231028166 A 60.42857142857143 60.42857142857143 0 0 1 -27.673455517228962 -59.47098662755"
      ></path>
      <path
        d="M -52.4557699835686 -33.572464980281424 A 53.714285714285715 53.714285714285715 0 0 1 -25.598627126425743 -53.08532144671111"
      ></path>
      <path
        d="M -47.02379873562253 -29.625906857746244 A 47 47 0 0 1 -23.523798735622528 -46.69965626587222"
      ></path>
      <path
        d="M -41.59182748767645 -25.679348735211065 A 40.285714285714285 40.285714285714285 0 0 1 -21.44897034481931 -40.31399108503333"
      ></path>
      <path
        d="M -36.159856239730374 -21.732790612675885 A 33.57142857142857 33.57142857142857 0 0 1 -19.37414195401609 -33.92832590419444"
      ></path>
      <path
        d="M -30.727884991784304 -17.786232490140712 A 26.85714285714286 26.85714285714286 0 0 1 -17.299313563212873 -27.54266072335556"
      ></path>
      <path
        d="M -25.29591374383822 -13.83967436760553 A 20.14285714285714 20.14285714285714 0 0 1 -15.224485172409652 -21.15699554251666"
      ></path>
      <path
        d="M -19.863942495892154 -9.893116245070356 A 13.42857142857143 13.42857142857143 0 0 1 -13.149656781606437 -14.77133036167778"
      ></path>
    </g>
    <g>
      <path
        d="M 90.9295318201739 -48.56413292625021 A 94 94 0 0 1 106.08519846170762 17.08227149024615"
      ></path>
      <path
        d="M 85.3631366901615 -44.809552002946624 A 87.28571428571429 87.28571428571429 0 0 1 99.4362557144428 16.14782352665714"
      ></path>
      <path
        d="M 79.79674156014907 -41.05497107964303 A 80.57142857142857 80.57142857142857 0 0 1 92.78731296717795 15.21337556306813"
      ></path>
      <path
        d="M 74.23034643013665 -37.30039015633945 A 73.85714285714286 73.85714285714286 0 0 1 86.13837021991313 14.27892759947912"
      ></path>
      <path
        d="M 68.66395130012421 -33.54580923303586 A 67.14285714285714 67.14285714285714 0 0 1 79.48942747264829 13.344479635890107"
      ></path>
      <path
        d="M 63.0975561701118 -29.791228309732276 A 60.42857142857143 60.42857142857143 0 0 1 72.84048472538348 12.410031672301097"
      ></path>
      <path
        d="M 57.53116104009938 -26.03664738642869 A 53.714285714285715 53.714285714285715 0 0 1 66.19154197811864 11.475583708712087"
      ></path>
      <path
        d="M 51.96476591008695 -22.282066463125105 A 47 47 0 0 1 59.54259923085381 10.541135745123075"
      ></path>
      <path
        d="M 46.398370780074536 -18.527485539821516 A 40.285714285714285 40.285714285714285 0 0 1 52.89365648358898 9.606687781534065"
      ></path>
      <path
        d="M 40.831975650062105 -14.77290461651793 A 33.57142857142857 33.57142857142857 0 0 1 46.244713736324144 8.672239817945053"
      ></path>
      <path
        d="M 35.265580520049696 -11.018323693214347 A 26.85714285714286 26.85714285714286 0 0 1 39.59577098905932 7.737791854356043"
      ></path>
      <path
        d="M 29.699185390037265 -7.263742769910756 A 20.14285714285714 20.14285714285714 0 0 1 32.946828241794485 6.803343890767032"
      ></path>
      <path
        d="M 24.132790260024848 -3.5091618466071735 A 13.42857142857143 13.42857142857143 0 0 1 26.29788549452966 5.868895927178022"
      ></path>
    </g>
    <g>
      <path
        d="M -106.0851984617076 17.082271490246157 A 94 94 0 0 1 -90.9295318201739 -48.56413292625021"
      ></path>
      <path
        d="M -99.43625571444278 16.14782352665715 A 87.28571428571429 87.28571428571429 0 0 1 -85.3631366901615 -44.809552002946624"
      ></path>
      <path
        d="M -92.78731296717794 15.213375563068135 A 80.57142857142857 80.57142857142857 0 0 1 -79.79674156014907 -41.05497107964303"
      ></path>
      <path
        d="M -86.13837021991313 14.278927599479125 A 73.85714285714286 73.85714285714286 0 0 1 -74.23034643013665 -37.30039015633945"
      ></path>
      <path
        d="M -79.48942747264829 13.344479635890114 A 67.14285714285714 67.14285714285714 0 0 1 -68.66395130012421 -33.54580923303586"
      ></path>
      <path
        d="M -72.84048472538346 12.410031672301102 A 60.42857142857143 60.42857142857143 0 0 1 -63.0975561701118 -29.791228309732276"
      ></path>
      <path
        d="M -66.19154197811864 11.47558370871209 A 53.714285714285715 53.714285714285715 0 0 1 -57.53116104009938 -26.03664738642869"
      ></path>
      <path
        d="M -59.5425992308538 10.541135745123078 A 47 47 0 0 1 -51.96476591008695 -22.282066463125105"
      ></path>
      <path
        d="M -52.89365648358897 9.606687781534067 A 40.285714285714285 40.285714285714285 0 0 1 -46.398370780074536 -18.527485539821516"
      ></path>
      <path
        d="M -46.244713736324144 8.672239817945057 A 33.57142857142857 33.57142857142857 0 0 1 -40.831975650062105 -14.77290461651793"
      ></path>
      <path
        d="M -39.59577098905932 7.737791854356046 A 26.85714285714286 26.85714285714286 0 0 1 -35.265580520049696 -11.018323693214347"
      ></path>
      <path
        d="M -32.94682824179448 6.803343890767033 A 20.14285714285714 20.14285714285714 0 0 1 -29.699185390037265 -7.263742769910756"
      ></path>
      <path
        d="M -26.29788549452966 5.868895927178023 A 13.42857142857143 13.42857142857143 0 0 1 -24.132790260024848 -3.5091618466071735"
      ></path>
    </g>
  </g>
</svg>
